<svg xmlns="http://www.w3.org/2000/svg" width="637.169" height="185.986" viewBox="0 0 637.169 185.986" class="sc-fAjcbJ jpUIrd"><path fill="#FFF" d="M49.146 51.559c11.307 0 18.75 3.449 22.33 10.352h19.665C86.015 42.633 72.025 33 49.146 33 19.703 33 5 48.785 5 80.352c0 31.668 14.703 47.496 44.146 47.496 22.879 0 36.868-9.629 41.995-28.949H71.477c-3.708 6.941-11.151 10.391-22.33 10.391-9.896 0-16.8-2.672-20.728-8.027-3.223-4.305-4.834-11.281-4.834-20.91 0-9.68 1.611-16.637 4.834-20.93 3.928-5.255 10.831-7.864 20.727-7.864zm55.92 76.289h18.586V33h-18.586v94.848zM252.512 33c-15.729 0-27.355 4.816-34.835 14.418C210.05 37.816 198.358 33 182.648 33c-29.443 0-44.146 15.848-44.146 47.535v47.312h18.576v-47.34c0-9.66 1.611-16.637 4.834-20.922 3.937-5.348 10.84-8.027 20.736-8.027 9.878 0 16.836 2.68 20.893 8.027 3.223 4.285 4.834 11.262 4.834 20.922v47.34h18.566v-47.34c0-9.66 1.63-16.637 4.834-20.922 3.928-5.348 10.858-8.027 20.736-8.027 9.879 0 16.846 2.68 20.901 8.027 3.223 4.285 4.816 11.262 4.816 20.922v47.34h18.594V80.535C296.823 48.848 282.056 33 252.512 33zm59.344 34.461v60.387h18.566V67.449c0-4.996 1.603-8.688 4.816-11.066 4.412-3.23 12.405-4.824 23.968-4.824V33c-31.575 0-47.35 11.516-47.35 34.461zM369.91 33v94.848h18.575V33H369.91z"></path><g fill="#FFF"><path d="M124.879 6.441c-4.275-5.887-12.451-7.188-18.265-2.969-5.813 4.242-7.068 12.453-2.765 18.305 4.284 5.867 12.441 7.195 18.255 2.957 5.833-4.25 7.069-12.445 2.775-18.293z"></path><path d="M118.479 19.961c4.119-2.992 6.226-7.762 6.023-12.523a5.298 5.298 0 0 0-.402-.566c-3.974-5.477-11.572-6.711-16.983-2.758-5.392 3.938-6.527 11.555-2.563 17.004.257.328.504.66.77.953 4.357 1.39 9.228.784 13.155-2.11z"></path><path d="M110.835 5.91c2.288-1.676 4.806-2.793 7.406-3.441-3.635-1.156-7.736-.633-11.032 1.738-4.431 3.215-6.052 8.809-4.477 13.762 1.154-4.68 3.9-9.02 8.103-12.059z"></path></g><g fill="#FFF"><path d="M389.703 6.441c-4.275-5.887-12.451-7.188-18.246-2.969-5.823 4.242-7.068 12.453-2.783 18.305 4.284 5.867 12.47 7.195 18.273 2.957 5.805-4.25 7.041-12.445 2.756-18.293z"></path><path d="M383.322 19.961c4.129-2.992 6.207-7.762 6.006-12.523-.128-.184-.257-.395-.385-.566-3.974-5.477-11.6-6.711-16.974-2.758-5.42 3.938-6.556 11.555-2.582 17.004.238.328.504.66.77.953 4.33 1.39 9.229.784 13.165-2.11z"></path><path d="M375.65 5.91a21.069 21.069 0 0 1 7.415-3.441 12.463 12.463 0 0 0-11.05 1.738c-4.395 3.215-6.016 8.809-4.432 13.762 1.146-4.68 3.874-9.02 8.067-12.059z"></path></g><path fill="#FAA842" d="M419.906 107.074c-4.294-5.867-12.46-7.188-18.273-2.957-5.813 4.238-7.041 12.426-2.765 18.301 4.293 5.871 12.441 7.18 18.273 2.941 5.814-4.23 7.041-12.425 2.765-18.285z"></path><path fill="#FFF" d="M452.756 86.492c6.115 0 10.171 1.887 12.094 5.621h10.666c-2.783-10.391-10.373-15.59-22.76-15.59-15.958 0-23.914 8.543-23.914 25.617 0 17.148 7.956 25.707 23.914 25.707 12.387 0 19.977-5.227 22.76-15.691H464.85c-2.005 3.809-6.033 5.723-12.094 5.723-5.365 0-9.119-1.465-11.233-4.379-1.74-2.324-2.609-6.121-2.609-11.359s.869-9.035 2.609-11.363c2.114-2.864 5.868-4.286 11.233-4.286zm50.628-9.969c-15.994 0-24.014 8.578-24.014 25.707 0 17.074 8.02 25.617 24.014 25.617 15.948 0 23.923-8.543 23.923-25.617 0-17.128-7.975-25.707-23.923-25.707zm11.243 37.071c-2.124 2.867-5.887 4.285-11.243 4.285-5.355 0-9.091-1.418-11.215-4.285-1.758-2.336-2.609-6.125-2.609-11.363 0-5.234.852-9.027 2.609-11.359 2.124-2.93 5.859-4.379 11.215-4.379s9.119 1.449 11.243 4.379c1.73 2.332 2.6 6.125 2.6 11.359 0 5.238-.87 9.027-2.6 11.363zm78.882-37.071c-8.524 0-14.805 2.602-18.869 7.754-4.139-5.152-10.474-7.754-18.988-7.754-15.939 0-23.923 8.578-23.923 25.707v25.617h10.062v-25.66c0-5.23.889-9 2.628-11.336 2.133-2.91 5.887-4.359 11.233-4.359 5.355 0 9.118 1.449 11.315 4.359 1.768 2.336 2.619 6.105 2.619 11.336v25.66h10.08v-25.66c0-5.23.86-9 2.6-11.336 2.133-2.91 5.887-4.359 11.243-4.359 5.364 0 9.127 1.449 11.324 4.359 1.73 2.336 2.619 6.105 2.619 11.336v25.66h10.07V102.23c0-17.128-8.019-25.707-24.013-25.707z"></path></svg>
